<svg viewBox="0 0 500 470" xmlns="http://www.w3.org/2000/svg" font-family="Arial,Helvetica,sans-serif">
<rect width="500" height="470" fill="#FAF6F1"/>
<rect x="16" y="16" width="468" height="438" rx="24" fill="#F0E6DA"/>
<defs>
<marker id="arw" markerWidth="7" markerHeight="7" refX="3.5" refY="3.5" orient="auto">
  <path d="M0,0.7 L3.5,3.5 L0,6.3" fill="none" stroke="#C1683F" stroke-width="1.3" stroke-linecap="round" stroke-linejoin="round"/>
</marker>
</defs>
<text x="250" y="52" text-anchor="middle" font-size="15" font-weight="700" letter-spacing="2"
  fill="#4A413A">GHID MARIMI · BLUZA / TOP</text>
<circle cx="250" cy="60" r="28" fill="#EFE1D2" stroke="#4A413A" stroke-width="2"/><path d="M 230 86 Q 250 96 270 86" fill="none" stroke="#4A413A" stroke-width="2" stroke-linecap="round"/><path d="M 195 110 L 170 145 L 180 340 L 200 395 L 300 395 L 320 340 L 330 145 L 305 110 Q 250 130 195 110 Z" fill="#E6D7C6" stroke="#4A413A" stroke-width="2" stroke-linejoin="round"/><path d="M 195 110 L 145 225 L 163 236 L 205 145" fill="#E6D7C6" stroke="#4A413A" stroke-width="1.8" stroke-linejoin="round"/><path d="M 305 110 L 355 225 L 337 236 L 295 145" fill="#E6D7C6" stroke="#4A413A" stroke-width="1.8" stroke-linejoin="round"/><line x1="170" y1="133" x2="330" y2="133" stroke="#C1683F" stroke-width="1.6" stroke-linecap="round" marker-start="url(#arw)" marker-end="url(#arw)"/><rect x="237.0" y="120" width="26" height="26" rx="8" fill="#C1683F"/><text x="250" y="138" font-family="Arial,Helvetica,sans-serif" font-size="14" font-weight="700" fill="#ffffff" text-anchor="middle">A</text><line x1="182" y1="225" x2="318" y2="225" stroke="#C1683F" stroke-width="1.6" stroke-linecap="round" marker-start="url(#arw)" marker-end="url(#arw)"/><rect x="237.0" y="212" width="26" height="26" rx="8" fill="#C1683F"/><text x="250" y="230" font-family="Arial,Helvetica,sans-serif" font-size="14" font-weight="700" fill="#ffffff" text-anchor="middle">B</text><line x1="182" y1="350" x2="318" y2="350" stroke="#C1683F" stroke-width="1.6" stroke-linecap="round" marker-start="url(#arw)" marker-end="url(#arw)"/><rect x="237.0" y="337" width="26" height="26" rx="8" fill="#C1683F"/><text x="250" y="355" font-family="Arial,Helvetica,sans-serif" font-size="14" font-weight="700" fill="#ffffff" text-anchor="middle">C</text><line x1="363" y1="145" x2="363" y2="395" stroke="#C1683F" stroke-width="1.6" stroke-linecap="round" marker-start="url(#arw)" marker-end="url(#arw)"/><rect x="370.0" y="257" width="26" height="26" rx="8" fill="#C1683F"/><text x="383" y="275" font-family="Arial,Helvetica,sans-serif" font-size="14" font-weight="700" fill="#ffffff" text-anchor="middle">D</text><line x1="145" y1="225" x2="145" y2="395" stroke="#C1683F" stroke-width="1.6" stroke-linecap="round" marker-start="url(#arw)" marker-end="url(#arw)"/><rect x="112.0" y="297" width="26" height="26" rx="8" fill="#C1683F"/><text x="125" y="315" font-family="Arial,Helvetica,sans-serif" font-size="14" font-weight="700" fill="#ffffff" text-anchor="middle">E</text>
<text x="250" y="442" text-anchor="middle" font-size="11" fill="#9C9086">
Litera din poza arata exact unde se masoara pe produs</text>
</svg>