<svg viewBox="0 0 500 710" xmlns="http://www.w3.org/2000/svg" font-family="Arial,Helvetica,sans-serif">
<rect width="500" height="710" fill="#FAF6F1"/>
<rect x="16" y="16" width="468" height="678" rx="24" fill="#F0E6DA"/>
<defs>
<marker id="arw" markerWidth="7" markerHeight="7" refX="3.5" refY="3.5" orient="auto">
  <path d="M0,0.7 L3.5,3.5 L0,6.3" fill="none" stroke="#C1683F" stroke-width="1.3" stroke-linecap="round" stroke-linejoin="round"/>
</marker>
</defs>
<text x="250" y="52" text-anchor="middle" font-size="15" font-weight="700" letter-spacing="2"
  fill="#4A413A">GHID MARIMI · PANTALONI</text>
<circle cx="250" cy="60" r="28" fill="#EFE1D2" stroke="#4A413A" stroke-width="2"/><path d="M 230 86 Q 250 96 270 86" fill="none" stroke="#4A413A" stroke-width="2" stroke-linecap="round"/><path d="M 200 110 L 187 145 L 197 240 L 300 240 L 310 145 L 300 110 Q 250 128 200 110 Z" fill="#F0E6DA" stroke="#9C9086" stroke-width="1.6" stroke-linejoin="round"/><path d="M 197 240 L 180 630 L 216 630 L 236 302 L 250 302 L 264 630 L 300 630 L 300 240 Z" fill="#E6D7C6" stroke="#4A413A" stroke-width="2" stroke-linejoin="round"/><line x1="184" y1="252" x2="313" y2="252" stroke="#C1683F" stroke-width="1.6" stroke-linecap="round" marker-start="url(#arw)" marker-end="url(#arw)"/><rect x="237.0" y="239" width="26" height="26" rx="8" fill="#C1683F"/><text x="250" y="257" font-family="Arial,Helvetica,sans-serif" font-size="14" font-weight="700" fill="#ffffff" text-anchor="middle">A</text><line x1="180" y1="300" x2="300" y2="300" stroke="#C1683F" stroke-width="1.6" stroke-linecap="round" marker-start="url(#arw)" marker-end="url(#arw)"/><rect x="237.0" y="287" width="26" height="26" rx="8" fill="#C1683F"/><text x="250" y="305" font-family="Arial,Helvetica,sans-serif" font-size="14" font-weight="700" fill="#ffffff" text-anchor="middle">B</text><line x1="216" y1="400" x2="250" y2="400" stroke="#C1683F" stroke-width="1.6" stroke-linecap="round" marker-start="url(#arw)" marker-end="url(#arw)"/><rect x="220.0" y="405" width="26" height="26" rx="8" fill="#C1683F"/><text x="233" y="423" font-family="Arial,Helvetica,sans-serif" font-size="14" font-weight="700" fill="#ffffff" text-anchor="middle">C</text><line x1="338" y1="240" x2="338" y2="630" stroke="#C1683F" stroke-width="1.6" stroke-linecap="round" marker-start="url(#arw)" marker-end="url(#arw)"/><rect x="345.0" y="422" width="26" height="26" rx="8" fill="#C1683F"/><text x="358" y="440" font-family="Arial,Helvetica,sans-serif" font-size="14" font-weight="700" fill="#ffffff" text-anchor="middle">D</text><line x1="216" y1="630" x2="264" y2="630" stroke="#C1683F" stroke-width="1.6" stroke-linecap="round" marker-start="url(#arw)" marker-end="url(#arw)"/><rect x="227.0" y="639" width="26" height="26" rx="8" fill="#C1683F"/><text x="240" y="657" font-family="Arial,Helvetica,sans-serif" font-size="14" font-weight="700" fill="#ffffff" text-anchor="middle">E</text>
<text x="250" y="682" text-anchor="middle" font-size="11" fill="#9C9086">
Litera din poza arata exact unde se masoara pe produs</text>
</svg>